<svg width="762" height="695" viewBox="0 0 762 695" fill="none" xmlns="http://www.w3.org/2000/svg">
<path d="M381 0C461.459 9.59468e-07 539.853 25.4719 604.946 72.7646C670.039 120.057 718.489 186.743 743.352 263.265C768.216 339.786 768.216 422.214 743.352 498.735C718.489 575.257 670.039 641.943 604.946 689.235C593.776 697.351 578.142 694.875 570.026 683.705C561.911 672.535 564.387 656.901 575.557 648.785C632.107 607.699 674.199 549.763 695.8 483.284C717.4 416.805 717.4 345.195 695.8 278.716C674.199 212.237 632.107 154.302 575.557 113.216C519.006 72.1294 450.9 50 381 50C311.1 50 242.994 72.1294 186.443 113.216C129.893 154.302 87.8005 212.237 66.2002 278.716C44.6 345.195 44.6 416.805 66.2002 483.284C87.8006 549.763 129.893 607.698 186.443 648.784C197.614 656.9 200.089 672.535 191.974 683.705C183.858 694.875 168.224 697.351 157.054 689.235C91.9608 641.943 43.5107 575.257 18.6474 498.735C-6.21581 422.214 -6.21581 339.786 18.6474 263.265C43.5107 186.743 91.9608 120.057 157.054 72.7646C222.147 25.4719 300.541 -9.59467e-07 381 0Z" fill="black"/>
<path d="M381 106C439.075 106 495.658 124.385 542.641 158.521C589.624 192.656 624.595 240.789 642.541 296.021C660.487 351.252 660.487 410.748 642.541 465.979C624.595 521.211 589.624 569.344 542.641 603.479C531.471 611.595 515.837 609.119 507.721 597.949C499.605 586.779 502.082 571.145 513.252 563.029C551.693 535.101 580.305 495.719 594.988 450.529C609.671 405.34 609.671 356.661 594.988 311.472C580.305 266.282 551.693 226.9 513.252 198.971C474.812 171.042 428.516 156 381 156C333.485 156 287.189 171.042 248.748 198.971C210.308 226.899 181.696 266.281 167.013 311.471C152.33 356.66 152.33 405.34 167.013 450.529C181.696 495.719 210.308 535.101 248.748 563.029C259.919 571.145 262.395 586.779 254.28 597.949C246.164 609.119 230.53 611.595 219.36 603.479C172.377 569.344 137.405 521.211 119.459 465.979C101.514 410.748 101.514 351.252 119.459 296.021C137.405 240.789 172.377 192.656 219.36 158.521C266.343 124.385 322.926 106 381 106Z" fill="black"/>
<path d="M381 206C417.956 206 453.964 217.7 483.862 239.422C513.76 261.144 536.014 291.774 547.434 326.922C558.854 362.069 558.854 399.931 547.434 435.078C536.014 470.226 513.76 500.856 483.862 522.578C472.692 530.694 457.058 528.217 448.942 517.047C440.827 505.877 443.303 490.243 454.473 482.127C475.829 466.611 491.724 444.732 499.882 419.627C508.039 394.522 508.039 367.478 499.882 342.373C491.724 317.268 475.829 295.389 454.473 279.873C433.117 264.357 407.397 256 381 256C354.602 256 328.882 264.357 307.526 279.873C286.17 295.389 270.275 317.268 262.118 342.373C253.961 367.478 253.961 394.522 262.118 419.627C270.275 444.732 286.17 466.611 307.526 482.127C318.696 490.243 321.173 505.877 313.057 517.047C304.942 528.217 289.308 530.694 278.137 522.578C248.239 500.856 225.985 470.226 214.565 435.078C203.145 399.931 203.145 362.069 214.565 326.922C225.985 291.774 248.239 261.144 278.137 239.422C308.036 217.7 344.043 206 381 206Z" fill="black"/>
</svg>
